{
	"asset":{
		"version":"2.0",
		"generator":"Blender Foundation Blender (stable FBX IO) 4.4.0"
	},
	"scenes":[{
		"nodes":[0,
		1]
	}],
	"cameras":[{
		"type":"perspective",
		"perspective":{
			"znear":0.009999999776482582,
			"zfar":10000000000.0,
			"aspectRatio":1.7777777910232545,
			"yfov":0.5631968379020691
		}
	}],
	"nodes":[{
		"name":"RS Camera",
		"camera":0,
		"translation":[2.8060295581817629,
		0.7286504507064819,
		1.3363763093948365],
		"rotation":[0.0688125342130661,
		-0.5643678903579712,
		-0.04728606343269348,
		-0.8212903141975403],
		"scale":[1.0,
		1.0,
		1.0]
	},
	{
		"name":"돌",
		"mesh":0,
		"translation":[0.0,
		-0.08999386429786682,
		6.794348195171551e-9],
		"rotation":[3.774895063202166e-8,
		0.0,
		0.0,
		-1.0],
		"scale":[100.0,
		100.0,
		100.0]
	}],
	"meshes":[{
		"name":"돌",
		"primitives":[{
			"attributes":{
				"POSITION":1,
				"NORMAL":2,
				"TEXCOORD_0":3
			},
			"indices":0,
			"material":0
		}]
	}],
	"accessors":[{
		"count":7266,
		"bufferView":0,
		"type":"SCALAR",
		"componentType":5123,
		"byteOffset":0,
		"min":[0],
		"max":[7265]
	},
	{
		"count":7266,
		"bufferView":1,
		"type":"VEC3",
		"componentType":5126,
		"byteOffset":0,
		"min":[-0.025656849145889283,
		-0.0052697909995913509,
		-0.023096736520528795],
		"max":[0.009999999776482582,
		0.006089339032769203,
		0.022111034020781518]
	},
	{
		"count":7266,
		"bufferView":1,
		"type":"VEC3",
		"componentType":5126,
		"byteOffset":12,
		"min":[-0.99990314245224,
		-0.9999644160270691,
		-0.9984568953514099],
		"max":[0.9984151721000671,
		0.9997771978378296,
		0.9982789158821106]
	},
	{
		"count":7266,
		"bufferView":1,
		"type":"VEC2",
		"componentType":5126,
		"byteOffset":24,
		"min":[0.000029000000722589904,
		0.001716017723083496],
		"max":[0.9999229907989502,
		0.9998519420623779]
	}],
	"bufferViews":[{
		"buffer":0,
		"byteOffset":0,
		"byteLength":14532,
		"target":34963
	},
	{
		"buffer":0,
		"byteOffset":14532,
		"byteLength":232512,
		"target":34962,
		"byteStride":32
	}],
	"buffers":[{
		"uri":"data:application/octet-stream;base64,",
		"byteLength":247044
	}],
	"images":[{
		"uri":"data:image/png;base64,"
	}],
	"samplers":[{
		"magFilter":9729,
		"minFilter":9729,
		"wrapS":10497,
		"wrapT":10497
	}],
	"textures":[{
		"sampler":0,
		"source":0
	}],
	"materials":[{
		"pbrMetallicRoughness":{
			"baseColorTexture":{
				"index":0
			},
			"baseColorFactor":[1.0,
			1.0,
			1.0,
			1.0],
			"metallicFactor":0.0,
			"roughnessFactor":0.5356143810225276
		},
		"name":"Material 001",
		"emissiveFactor":[0.0,
		0.0,
		0.0],
		"alphaMode":"OPAQUE",
		"doubleSided":false
	}]
}